%TF.GenerationSoftware,KiCad,Pcbnew,9.0.2*%
%TF.CreationDate,2025-12-13T10:39:55-05:00*%
%TF.ProjectId,Nif-T,4e69662d-542e-46b6-9963-61645f706362,rev?*%
%TF.SameCoordinates,Original*%
%TF.FileFunction,Soldermask,Bot*%
%TF.FilePolarity,Negative*%
%FSLAX46Y46*%
G04 Gerber Fmt 4.6, Leading zero omitted, Abs format (unit mm)*
G04 Created by KiCad (PCBNEW 9.0.2) date 2025-12-13 10:39:55*
%MOMM*%
%LPD*%
G01*
G04 APERTURE LIST*
%ADD10C,0.000000*%
%ADD11C,1.800000*%
%ADD12C,2.000000*%
%ADD13C,2.200000*%
%ADD14C,2.400000*%
%ADD15C,0.800000*%
%ADD16C,6.400000*%
%ADD17C,3.250000*%
%ADD18R,1.500000X1.500000*%
%ADD19C,1.500000*%
%ADD20C,1.600000*%
%ADD21C,2.030000*%
%ADD22O,3.800000X1.500000*%
%ADD23O,1.500000X3.400000*%
%ADD24C,0.750000*%
%ADD25O,1.200000X2.000000*%
%ADD26O,1.200000X1.800000*%
%ADD27C,0.900000*%
%ADD28C,1.700000*%
G04 APERTURE END LIST*
D10*
%TO.C,G\u002A\u002A\u002A*%
G36*
X165409494Y-141114597D02*
G01*
X165445896Y-141145867D01*
X165447286Y-141147254D01*
X165482964Y-141189521D01*
X165498991Y-141229642D01*
X165494206Y-141272950D01*
X165467446Y-141324775D01*
X165417551Y-141390448D01*
X165386323Y-141426990D01*
X165355058Y-141466684D01*
X165335773Y-141498682D01*
X165332789Y-141508852D01*
X165319646Y-141527451D01*
X165309830Y-141529442D01*
X165284401Y-141542729D01*
X165277403Y-141554150D01*
X165255124Y-141574239D01*
X165233193Y-141578858D01*
X165200092Y-141590029D01*
X165160231Y-141617872D01*
X165149048Y-141628275D01*
X165115098Y-141658925D01*
X165089509Y-141676250D01*
X165084427Y-141677691D01*
X165070931Y-141691052D01*
X165069222Y-141702399D01*
X165056037Y-141724237D01*
X165044514Y-141727107D01*
X165022555Y-141738177D01*
X165019677Y-141747697D01*
X165005777Y-141769145D01*
X164963071Y-141795707D01*
X164908758Y-141820685D01*
X164886578Y-141815529D01*
X164878169Y-141802941D01*
X164857767Y-141780002D01*
X164845086Y-141776524D01*
X164824787Y-141763300D01*
X164822140Y-141751815D01*
X164813246Y-141729895D01*
X164805668Y-141727107D01*
X164791055Y-141740449D01*
X164789196Y-141751815D01*
X164775463Y-141771938D01*
X164756252Y-141776524D01*
X164728722Y-141764876D01*
X164723308Y-141743579D01*
X164733607Y-141716750D01*
X164748016Y-141710635D01*
X164762916Y-141702502D01*
X164770588Y-141673961D01*
X164772724Y-141620039D01*
X164774942Y-141565403D01*
X164782726Y-141537275D01*
X164797432Y-141529442D01*
X164817554Y-141515709D01*
X164822140Y-141496498D01*
X164832440Y-141469668D01*
X164846849Y-141463553D01*
X164868728Y-141452301D01*
X164871557Y-141442591D01*
X164884817Y-141421939D01*
X164917672Y-141397121D01*
X164927523Y-141391489D01*
X164974283Y-141355369D01*
X165011838Y-141308592D01*
X165013630Y-141305382D01*
X165041898Y-141265550D01*
X165074764Y-141250353D01*
X165089440Y-141249416D01*
X165125904Y-141241545D01*
X165135111Y-141224708D01*
X165148358Y-141203058D01*
X165160609Y-141200000D01*
X165188189Y-141188341D01*
X165220432Y-141160052D01*
X165222405Y-141157801D01*
X165277200Y-141119267D01*
X165327888Y-141106322D01*
X165375808Y-141103353D01*
X165409494Y-141114597D01*
G37*
G36*
X164847012Y-140862392D02*
G01*
X164887318Y-140882911D01*
X164909003Y-140919253D01*
X164921680Y-140971865D01*
X164924711Y-141028939D01*
X164917458Y-141078663D01*
X164899519Y-141109060D01*
X164876371Y-141141522D01*
X164871557Y-141164753D01*
X164864686Y-141190310D01*
X164838038Y-141199471D01*
X164822140Y-141200000D01*
X164783973Y-141206891D01*
X164772724Y-141222945D01*
X164759437Y-141248374D01*
X164748016Y-141255373D01*
X164726189Y-141272799D01*
X164723308Y-141281843D01*
X164710940Y-141308065D01*
X164681388Y-141339474D01*
X164645981Y-141364752D01*
X164635428Y-141369635D01*
X164608094Y-141391893D01*
X164588744Y-141421911D01*
X164567662Y-141452513D01*
X164547706Y-141463553D01*
X164529809Y-141477289D01*
X164525642Y-141496498D01*
X164518419Y-141523259D01*
X164508384Y-141529442D01*
X164486357Y-141540529D01*
X164455873Y-141567532D01*
X164452960Y-141570622D01*
X164421883Y-141598703D01*
X164397541Y-141611696D01*
X164396095Y-141611802D01*
X164378356Y-141623607D01*
X164377393Y-141629061D01*
X164365847Y-141651085D01*
X164338521Y-141681719D01*
X164306381Y-141710341D01*
X164280396Y-141726329D01*
X164276155Y-141727107D01*
X164263665Y-141740484D01*
X164262088Y-141751815D01*
X164253194Y-141773736D01*
X164245616Y-141776524D01*
X164229747Y-141763884D01*
X164229144Y-141759265D01*
X164217598Y-141737241D01*
X164190272Y-141706607D01*
X164158132Y-141677985D01*
X164132147Y-141661997D01*
X164127906Y-141661219D01*
X164120313Y-141646296D01*
X164115206Y-141607686D01*
X164113839Y-141567523D01*
X164118957Y-141496550D01*
X164136648Y-141443224D01*
X164150902Y-141419387D01*
X164177736Y-141384853D01*
X164198845Y-141366005D01*
X164202620Y-141364833D01*
X164225242Y-141351520D01*
X164248230Y-141321429D01*
X164261125Y-141288898D01*
X164261565Y-141284024D01*
X164272959Y-141259469D01*
X164301156Y-141224034D01*
X164317417Y-141207246D01*
X164352993Y-141169319D01*
X164377858Y-141136660D01*
X164382788Y-141127339D01*
X164400090Y-141104618D01*
X164409821Y-141101167D01*
X164424890Y-141087833D01*
X164426810Y-141076459D01*
X164439995Y-141054621D01*
X164451518Y-141051751D01*
X164473438Y-141042856D01*
X164476226Y-141035278D01*
X164489424Y-141020345D01*
X164499013Y-141018806D01*
X164521138Y-141005006D01*
X164530415Y-140985862D01*
X164551738Y-140958306D01*
X164571754Y-140952918D01*
X164603112Y-140941958D01*
X164613960Y-140928210D01*
X164636632Y-140906287D01*
X164649843Y-140903502D01*
X164682727Y-140892531D01*
X164700953Y-140878793D01*
X164739176Y-140859946D01*
X164792724Y-140854586D01*
X164847012Y-140862392D01*
G37*
G36*
X164253852Y-140763489D02*
G01*
X164258918Y-140833495D01*
X164258496Y-140878936D01*
X164250330Y-140902071D01*
X164246563Y-140903502D01*
X164233948Y-140917716D01*
X164229144Y-140949032D01*
X164223324Y-140981248D01*
X164200394Y-141004441D01*
X164163143Y-141023157D01*
X164119806Y-141040711D01*
X164089446Y-141050799D01*
X164083857Y-141051751D01*
X164069727Y-141065504D01*
X164052017Y-141099378D01*
X164048817Y-141107195D01*
X164012627Y-141160180D01*
X163971618Y-141184394D01*
X163935024Y-141204168D01*
X163916673Y-141224691D01*
X163916174Y-141227782D01*
X163902984Y-141247099D01*
X163892239Y-141249416D01*
X163870375Y-141263029D01*
X163846216Y-141296772D01*
X163840946Y-141307068D01*
X163817966Y-141344149D01*
X163795302Y-141363783D01*
X163790756Y-141364721D01*
X163770068Y-141374245D01*
X163767925Y-141381193D01*
X163754481Y-141395558D01*
X163741675Y-141397665D01*
X163716467Y-141411454D01*
X163707107Y-141429470D01*
X163689548Y-141460227D01*
X163675705Y-141470133D01*
X163654952Y-141492306D01*
X163652620Y-141504217D01*
X163640555Y-141526406D01*
X163629674Y-141529442D01*
X163604245Y-141542729D01*
X163597247Y-141554150D01*
X163575002Y-141574107D01*
X163552377Y-141578858D01*
X163521252Y-141590182D01*
X163480320Y-141619151D01*
X163455550Y-141642166D01*
X163398795Y-141692788D01*
X163352835Y-141714791D01*
X163314092Y-141709201D01*
X163289594Y-141689682D01*
X163265667Y-141654737D01*
X163257290Y-141626931D01*
X163244651Y-141597607D01*
X163232581Y-141589374D01*
X163210669Y-141567360D01*
X163207873Y-141554667D01*
X163220829Y-141532498D01*
X163232581Y-141529442D01*
X163253249Y-141515905D01*
X163257290Y-141499604D01*
X163267491Y-141468900D01*
X163291521Y-141433472D01*
X163319516Y-141405811D01*
X163337765Y-141397665D01*
X163359442Y-141385872D01*
X163393509Y-141355889D01*
X163432496Y-141315810D01*
X163468931Y-141273730D01*
X163495343Y-141237741D01*
X163504371Y-141217167D01*
X163518592Y-141204541D01*
X163549670Y-141199476D01*
X163608689Y-141185181D01*
X163649255Y-141146696D01*
X163657242Y-141129993D01*
X163674217Y-141105710D01*
X163685048Y-141101167D01*
X163700815Y-141088163D01*
X163702037Y-141080480D01*
X163715622Y-141060084D01*
X163748472Y-141039250D01*
X163750059Y-141038536D01*
X163794751Y-141008381D01*
X163826703Y-140972744D01*
X163857878Y-140932509D01*
X163898933Y-140889837D01*
X163941566Y-140852230D01*
X163977479Y-140827190D01*
X163994417Y-140821154D01*
X164021043Y-140810395D01*
X164044450Y-140791698D01*
X164077710Y-140771972D01*
X164130908Y-140763521D01*
X164163873Y-140762871D01*
X164253852Y-140763489D01*
G37*
%TD*%
D11*
%TO.C,RLY6*%
X173900000Y-117200000D03*
D12*
X185400000Y-117200000D03*
X192400000Y-117200000D03*
D11*
X173900000Y-112500000D03*
%TD*%
D13*
%TO.C,U8*%
X244820000Y-135750000D03*
X244820000Y-130670000D03*
X244820000Y-125590000D03*
D14*
X229580000Y-123050000D03*
X229580000Y-128130000D03*
X229580000Y-133210000D03*
%TD*%
D15*
%TO.C,H4*%
X243200000Y-145600000D03*
X243902944Y-143902944D03*
X243902944Y-147297056D03*
X245600000Y-143200000D03*
D16*
X245600000Y-145600000D03*
D15*
X245600000Y-148000000D03*
X247297056Y-143902944D03*
X247297056Y-147297056D03*
X248000000Y-145600000D03*
%TD*%
%TO.C,H3*%
X152000000Y-145600000D03*
X152702944Y-143902944D03*
X152702944Y-147297056D03*
X154400000Y-143200000D03*
D16*
X154400000Y-145600000D03*
D15*
X154400000Y-148000000D03*
X156097056Y-143902944D03*
X156097056Y-147297056D03*
X156800000Y-145600000D03*
%TD*%
D11*
%TO.C,RLY4*%
X225850000Y-137100000D03*
D12*
X214350000Y-137100000D03*
X207350000Y-137100000D03*
D11*
X225850000Y-141800000D03*
%TD*%
%TO.C,RLY5*%
X173950000Y-107750000D03*
D12*
X185450000Y-107750000D03*
X192450000Y-107750000D03*
D11*
X173950000Y-103050000D03*
%TD*%
%TO.C,RLY1*%
X225900000Y-110900000D03*
D12*
X214400000Y-110900000D03*
X207400000Y-110900000D03*
D11*
X225900000Y-115600000D03*
%TD*%
D15*
%TO.C,H2*%
X243102944Y-54497056D03*
X243805888Y-52800000D03*
X243805888Y-56194112D03*
X245502944Y-52097056D03*
D16*
X245502944Y-54497056D03*
D15*
X245502944Y-56897056D03*
X247200000Y-52800000D03*
X247200000Y-56194112D03*
X247902944Y-54497056D03*
%TD*%
%TO.C,H1*%
X152000000Y-54400000D03*
X152702944Y-52702944D03*
X152702944Y-56097056D03*
X154400000Y-52000000D03*
D16*
X154400000Y-54400000D03*
D15*
X154400000Y-56800000D03*
X156097056Y-52702944D03*
X156097056Y-56097056D03*
X156800000Y-54400000D03*
%TD*%
D11*
%TO.C,RLY8*%
X193550000Y-147500000D03*
D12*
X193550000Y-136000000D03*
X193550000Y-129000000D03*
D11*
X188850000Y-147500000D03*
%TD*%
%TO.C,RLY3*%
X225850000Y-129050000D03*
D12*
X214350000Y-129050000D03*
X207350000Y-129050000D03*
D11*
X225850000Y-133750000D03*
%TD*%
D13*
%TO.C,U11*%
X172250000Y-145000000D03*
X177330000Y-145000000D03*
X182410000Y-145000000D03*
D14*
X184950000Y-129760000D03*
X179870000Y-129760000D03*
X174790000Y-129760000D03*
%TD*%
D13*
%TO.C,J2*%
X228822500Y-54037500D03*
X223822500Y-54037500D03*
%TD*%
D11*
%TO.C,RLY2*%
X225900000Y-120500000D03*
D12*
X214400000Y-120500000D03*
X207400000Y-120500000D03*
D11*
X225900000Y-125200000D03*
%TD*%
D17*
%TO.C,RJ1*%
X187350000Y-61127500D03*
X175950000Y-61127500D03*
D18*
X187370000Y-70017500D03*
D19*
X186100000Y-67477500D03*
X184830000Y-70017500D03*
X183560000Y-67477500D03*
X182290000Y-70017500D03*
X181020000Y-67477500D03*
X179750000Y-70017500D03*
X178480000Y-67477500D03*
X177210000Y-70017500D03*
X175940000Y-67477500D03*
D20*
X188280000Y-57037500D03*
X185740000Y-57037500D03*
X177560000Y-57037500D03*
X175020000Y-57037500D03*
D21*
X189400000Y-64177500D03*
X173900000Y-64177500D03*
%TD*%
D11*
%TO.C,RLY7*%
X173900000Y-126000000D03*
D12*
X185400000Y-126000000D03*
X192400000Y-126000000D03*
D11*
X173900000Y-121300000D03*
%TD*%
D22*
%TO.C,J1*%
X215600000Y-63837500D03*
X215600000Y-57837500D03*
D23*
X210940000Y-61337500D03*
%TD*%
D24*
%TO.C,P1*%
X199260000Y-56700000D03*
X193460000Y-56700000D03*
D25*
X200690000Y-57200000D03*
D26*
X200690000Y-53020000D03*
D25*
X192030000Y-57200000D03*
D26*
X192030000Y-53020000D03*
%TD*%
D27*
%TO.C,SW4*%
X240000000Y-52187500D03*
X233200000Y-52187500D03*
%TD*%
D28*
%TO.C,U3*%
X162400000Y-51920000D03*
X162400000Y-54460000D03*
X162400000Y-57000000D03*
X162400000Y-59540000D03*
X162400000Y-82340000D03*
X162400000Y-84880000D03*
%TD*%
D13*
%TO.C,U7*%
X244820000Y-117550000D03*
X244820000Y-112470000D03*
X244820000Y-107390000D03*
D14*
X229580000Y-104850000D03*
X229580000Y-109930000D03*
X229580000Y-115010000D03*
%TD*%
D13*
%TO.C,U10*%
X154960000Y-122650000D03*
X154960000Y-127730000D03*
X154960000Y-132810000D03*
D14*
X170200000Y-135350000D03*
X170200000Y-130270000D03*
X170200000Y-125190000D03*
%TD*%
D13*
%TO.C,U9*%
X154960000Y-104450000D03*
X154960000Y-109530000D03*
X154960000Y-114610000D03*
D14*
X170200000Y-117150000D03*
X170200000Y-112070000D03*
X170200000Y-106990000D03*
%TD*%
M02*
