M48
; DRILL file {KiCad 9.0.2} date 2025-12-13T10:39:51-0500
; FORMAT={-:-/ absolute / metric / decimal}
; #@! TF.CreationDate,2025-12-13T10:39:51-05:00
; #@! TF.GenerationSoftware,Kicad,Pcbnew,9.0.2
; #@! TF.FileFunction,Plated,1,2,PTH
FMAT,2
METRIC
; #@! TA.AperFunction,Plated,PTH,ViaDrill
T1C0.300
; #@! TA.AperFunction,Plated,PTH,ComponentDrill
T2C0.500
; #@! TA.AperFunction,Plated,PTH,ComponentDrill
T3C0.750
; #@! TA.AperFunction,Plated,PTH,ComponentDrill
T4C0.800
; #@! TA.AperFunction,Plated,PTH,ComponentDrill
T5C0.900
; #@! TA.AperFunction,Plated,PTH,ComponentDrill
T6C0.900
; #@! TA.AperFunction,Plated,PTH,ComponentDrill
T7C1.050
; #@! TA.AperFunction,Plated,PTH,ComponentDrill
T8C1.100
; #@! TA.AperFunction,Plated,PTH,ComponentDrill
T9C1.300
; #@! TA.AperFunction,Plated,PTH,ComponentDrill
T10C1.400
; #@! TA.AperFunction,Plated,PTH,ComponentDrill
T11C1.600
; #@! TA.AperFunction,Plated,PTH,ComponentDrill
T12C1.631
; #@! TA.AperFunction,Plated,PTH,ComponentDrill
T13C3.200
; #@! TA.AperFunction,Plated,PTH,ComponentDrill
T14C3.250
%
G90
G05
T1
X165.8Y-88.6
X167.8Y-77.6
X170.8Y-77.6
X176.587Y-84.916
X176.678Y-84.122
X178.075Y-76.8
X178.1Y-93.9
X178.641Y-82.701
X179.242Y-82.099
X179.69Y-85.51
X179.725Y-76.8
X180.0Y-88.4
X180.6Y-94.0
X180.7Y-89.1
X182.0Y-88.8
X182.2Y-83.4
X182.2Y-111.6
X185.263Y-76.246
X186.113Y-76.246
X186.6Y-81.2
X187.2Y-126.4
X188.6Y-107.2
X188.6Y-108.0
X189.224Y-82.424
X189.4Y-107.2
X189.4Y-108.0
X189.8Y-83.024
X190.2Y-81.6
X190.256Y-83.681
X190.698Y-84.348
X191.2Y-85.2
X191.6Y-103.4
X191.6Y-104.2
X191.6Y-109.8
X191.6Y-110.6
X191.644Y-85.866
X192.0Y-59.0
X192.4Y-86.6
X192.4Y-103.4
X192.4Y-104.2
X192.4Y-109.8
X192.4Y-110.6
X193.6Y-60.0
X193.8Y-80.858
X194.0Y-106.0
X194.0Y-107.0
X194.0Y-141.8
X195.8Y-101.6
X195.935Y-59.2
X196.785Y-59.2
X197.2Y-112.8
X197.2Y-113.6
X197.2Y-120.85
X197.2Y-121.65
X197.2Y-129.0
X197.2Y-129.8
X197.2Y-137.4
X197.2Y-138.2
X197.8Y-105.4
X198.0Y-112.8
X198.0Y-113.6
X198.0Y-120.85
X198.0Y-121.65
X198.0Y-129.0
X198.0Y-129.8
X198.0Y-137.4
X198.0Y-138.2
X198.6Y-105.4
X199.4Y-138.8
X200.4Y-79.0
X201.2Y-61.6
X201.4Y-112.4
X201.6Y-136.8
X202.4Y-117.8
X202.4Y-137.8
X202.4Y-138.6
X202.8Y-121.2
X202.8Y-122.0
X202.8Y-129.4
X202.8Y-130.2
X203.2Y-113.2
X203.2Y-114.0
X203.2Y-138.6
X203.6Y-105.8
X203.6Y-106.6
X203.6Y-121.2
X203.6Y-122.0
X203.6Y-129.4
X203.6Y-130.2
X204.0Y-109.2
X204.0Y-113.2
X204.0Y-114.0
X204.2Y-97.6
X205.4Y-92.399
X205.6Y-99.2
X205.8Y-142.0
X205.8Y-142.8
X206.2Y-90.4
X206.4Y-106.0
X206.6Y-142.0
X206.6Y-142.8
X206.8Y-60.6
X207.6Y-133.6
X207.6Y-134.4
X208.4Y-133.6
X208.4Y-134.4
X209.2Y-139.0
X209.2Y-139.8
X209.4Y-80.0
X209.4Y-106.4
X209.4Y-107.2
X209.709Y-69.9
X210.0Y-139.0
X210.0Y-139.8
X210.2Y-106.4
X210.2Y-107.2
X210.24Y-89.6
X211.6Y-126.349
X212.0Y-80.2
X212.0Y-107.6
X212.78Y-89.4
X212.8Y-77.0
X213.6Y-108.999
X213.8Y-106.2
X214.0Y-86.6
X214.0Y-87.4
X214.0Y-91.601
X214.4Y-80.2
X214.4Y-119.0
X214.746Y-145.946
X214.8Y-86.6
X214.8Y-87.4
X215.2Y-106.4
X215.2Y-108.6
X216.0Y-148.2
X216.0Y-149.0
X216.2Y-91.0
X216.8Y-77.6
X216.8Y-148.2
X216.8Y-149.0
X216.954Y-89.446
X218.2Y-106.4
X218.4Y-89.6
X218.46Y-104.6
X218.975Y-106.2
X219.0Y-102.4
X220.0Y-108.6
X220.4Y-105.4
X220.892Y-80.643
X221.4Y-90.8
X222.2Y-142.8
X222.73Y-77.6
X223.324Y-84.076
X223.4Y-59.2
X223.4Y-116.6
X223.439Y-89.199
X223.575Y-83.307
X223.6Y-104.4
X223.6Y-129.2
X223.8Y-61.2
X223.8Y-66.2
X224.0Y-91.6
X224.8Y-107.6
X224.887Y-82.707
X225.183Y-56.992
X225.183Y-57.842
X225.6Y-105.4
X225.691Y-89.231
X225.776Y-83.176
X226.0Y-71.416
X226.216Y-69.184
X226.885Y-87.188
X226.891Y-91.33
X227.608Y-65.959
X229.001Y-65.999
X230.0Y-65.95
X230.8Y-81.4
X231.403Y-60.975
X232.0Y-82.8
X232.0Y-91.6
X232.6Y-66.0
X233.4Y-78.8
X233.61Y-66.049
X234.2Y-56.988
X234.8Y-66.0
X236.0Y-80.8
X236.0Y-90.465
X236.2Y-69.2
X236.8Y-60.2
X236.8Y-61.0
X237.4Y-59.2
X237.6Y-60.2
X237.6Y-61.0
X237.796Y-65.991
X238.0Y-62.799
X238.8Y-69.0
X239.4Y-78.2
X240.0Y-60.2
X240.0Y-62.8
X240.6Y-96.6
X241.0Y-71.8
X241.0Y-72.6
X241.0Y-82.2
X241.4Y-62.8
X241.6Y-88.0
X241.6Y-88.8
X241.8Y-71.8
X241.8Y-72.6
X242.2Y-69.4
X242.2Y-70.2
X242.2Y-90.181
X242.2Y-92.6
X242.2Y-95.8
X242.4Y-88.0
X242.4Y-88.8
X243.0Y-69.4
X243.0Y-70.2
X246.4Y-89.0
X246.4Y-89.8
X246.4Y-92.2
X246.4Y-93.0
X246.4Y-95.6
X246.4Y-96.4
X247.2Y-89.0
X247.2Y-89.8
X247.2Y-92.2
X247.2Y-93.0
X247.2Y-95.6
X247.2Y-96.4
X248.4Y-91.6
T2
X152.0Y-54.4
X152.0Y-145.6
X152.703Y-52.703
X152.703Y-56.097
X152.703Y-143.903
X152.703Y-147.297
X154.4Y-52.0
X154.4Y-56.8
X154.4Y-143.2
X154.4Y-148.0
X156.097Y-52.703
X156.097Y-56.097
X156.097Y-143.903
X156.097Y-147.297
X156.8Y-54.4
X156.8Y-145.6
X243.103Y-54.497
X243.2Y-145.6
X243.806Y-52.8
X243.806Y-56.194
X243.903Y-143.903
X243.903Y-147.297
X245.503Y-52.097
X245.503Y-56.897
X245.6Y-143.2
X245.6Y-148.0
X247.2Y-52.8
X247.2Y-56.194
X247.297Y-143.903
X247.297Y-147.297
X247.903Y-54.497
X248.0Y-145.6
T3
X193.46Y-56.7
X199.26Y-56.7
T5
X233.2Y-52.188
X240.0Y-52.188
T6
X175.94Y-67.477
X177.21Y-70.017
X178.48Y-67.477
X179.75Y-70.017
X181.02Y-67.477
X182.29Y-70.017
X183.56Y-67.477
X184.83Y-70.017
X186.1Y-67.477
X187.37Y-70.017
T7
X162.4Y-51.92
X162.4Y-54.46
X162.4Y-57.0
X162.4Y-59.54
X162.4Y-82.34
X162.4Y-84.88
T8
X173.9Y-112.5
X173.9Y-117.2
X173.9Y-121.3
X173.9Y-126.0
X173.95Y-103.05
X173.95Y-107.75
X175.02Y-57.037
X177.56Y-57.037
X185.74Y-57.037
X188.28Y-57.037
X188.85Y-147.5
X193.55Y-147.5
X225.85Y-129.05
X225.85Y-133.75
X225.85Y-137.1
X225.85Y-141.8
X225.9Y-110.9
X225.9Y-115.6
X225.9Y-120.5
X225.9Y-125.2
T9
X185.4Y-117.2
X185.4Y-126.0
X185.45Y-107.75
X192.4Y-117.2
X192.4Y-126.0
X192.45Y-107.75
X193.55Y-129.0
X193.55Y-136.0
X207.35Y-129.05
X207.35Y-137.1
X207.4Y-110.9
X207.4Y-120.5
X214.35Y-129.05
X214.35Y-137.1
X214.4Y-110.9
X214.4Y-120.5
T10
X154.96Y-104.45
X154.96Y-109.53
X154.96Y-114.61
X154.96Y-122.65
X154.96Y-127.73
X154.96Y-132.81
X172.25Y-145.0
X177.33Y-145.0
X182.41Y-145.0
X223.822Y-54.037
X228.822Y-54.037
X244.82Y-107.39
X244.82Y-112.47
X244.82Y-117.55
X244.82Y-125.59
X244.82Y-130.67
X244.82Y-135.75
T11
X170.2Y-106.99
X170.2Y-112.07
X170.2Y-117.15
X170.2Y-125.19
X170.2Y-130.27
X170.2Y-135.35
X174.79Y-129.76
X179.87Y-129.76
X184.95Y-129.76
X229.58Y-104.85
X229.58Y-109.93
X229.58Y-115.01
X229.58Y-123.05
X229.58Y-128.13
X229.58Y-133.21
T12
X173.9Y-64.177
X189.4Y-64.177
T13
X154.4Y-54.4
X154.4Y-145.6
X245.503Y-54.497
X245.6Y-145.6
T14
X175.95Y-61.127
X187.35Y-61.127
T4
G00X192.03Y-53.32
M15
G01X192.03Y-52.72
M16
G05
G00X192.03Y-57.6
M15
G01X192.03Y-56.8
M16
G05
G00X200.69Y-53.32
M15
G01X200.69Y-52.72
M16
G05
G00X200.69Y-57.6
M15
G01X200.69Y-56.8
M16
G05
T6
G00X210.94Y-62.187
M15
G01X210.94Y-60.488
M16
G05
G00X214.5Y-57.837
M15
G01X216.7Y-57.837
M16
G05
G00X216.7Y-63.837
M15
G01X214.5Y-63.837
M16
G05
M30
