%TF.GenerationSoftware,KiCad,Pcbnew,9.0.2*%
%TF.CreationDate,2025-12-13T10:39:55-05:00*%
%TF.ProjectId,Nif-T,4e69662d-542e-46b6-9963-61645f706362,rev?*%
%TF.SameCoordinates,Original*%
%TF.FileFunction,Paste,Top*%
%TF.FilePolarity,Positive*%
%FSLAX46Y46*%
G04 Gerber Fmt 4.6, Leading zero omitted, Abs format (unit mm)*
G04 Created by KiCad (PCBNEW 9.0.2) date 2025-12-13 10:39:55*
%MOMM*%
%LPD*%
G01*
G04 APERTURE LIST*
G04 Aperture macros list*
%AMRoundRect*
0 Rectangle with rounded corners*
0 $1 Rounding radius*
0 $2 $3 $4 $5 $6 $7 $8 $9 X,Y pos of 4 corners*
0 Add a 4 corners polygon primitive as box body*
4,1,4,$2,$3,$4,$5,$6,$7,$8,$9,$2,$3,0*
0 Add four circle primitives for the rounded corners*
1,1,$1+$1,$2,$3*
1,1,$1+$1,$4,$5*
1,1,$1+$1,$6,$7*
1,1,$1+$1,$8,$9*
0 Add four rect primitives between the rounded corners*
20,1,$1+$1,$2,$3,$4,$5,0*
20,1,$1+$1,$4,$5,$6,$7,0*
20,1,$1+$1,$6,$7,$8,$9,0*
20,1,$1+$1,$8,$9,$2,$3,0*%
%AMFreePoly0*
4,1,21,4.105355,5.815355,4.120000,5.780000,4.120000,-5.140000,4.105355,-5.175355,4.070000,-5.190000,2.540000,-5.190000,2.504645,-5.175355,2.490000,-5.140000,2.490000,-4.050000,-4.060000,-4.050000,-4.095355,-4.035355,-4.110000,-4.000000,-4.110000,4.000000,-4.095355,4.035355,-4.060000,4.050000,2.490000,4.050000,2.490000,5.780000,2.504645,5.815355,2.540000,5.830000,4.070000,5.830000,
4.105355,5.815355,4.105355,5.815355,$1*%
G04 Aperture macros list end*
%ADD10R,0.950000X1.150000*%
%ADD11R,1.410000X1.350000*%
%ADD12R,3.300000X0.850000*%
%ADD13R,1.540000X2.060000*%
%ADD14RoundRect,0.375000X-0.375000X0.625000X-0.375000X-0.625000X0.375000X-0.625000X0.375000X0.625000X0*%
%ADD15RoundRect,0.500000X-1.400000X0.500000X-1.400000X-0.500000X1.400000X-0.500000X1.400000X0.500000X0*%
%ADD16R,1.350000X1.410000*%
%ADD17R,1.100000X2.200000*%
%ADD18RoundRect,0.150000X0.150000X-0.825000X0.150000X0.825000X-0.150000X0.825000X-0.150000X-0.825000X0*%
%ADD19R,1.000000X1.500000*%
%ADD20R,1.380000X1.130000*%
%ADD21R,5.000000X1.500000*%
%ADD22R,4.000000X3.500000*%
%ADD23R,1.250000X1.000000*%
%ADD24R,4.000000X1.600000*%
%ADD25R,1.130000X1.380000*%
%ADD26R,1.250000X0.700000*%
%ADD27R,1.200000X1.400000*%
%ADD28R,1.230000X1.360000*%
%ADD29R,1.150000X3.200000*%
%ADD30FreePoly0,270.000000*%
%ADD31R,2.060000X1.540000*%
%ADD32R,0.660000X0.280000*%
%ADD33R,0.280000X0.660000*%
%ADD34R,2.550000X2.550000*%
%ADD35R,0.300000X1.300000*%
%ADD36R,1.200000X2.200000*%
%ADD37R,0.950000X2.100000*%
%ADD38R,2.100000X0.950000*%
%ADD39R,0.900000X0.900000*%
%ADD40R,1.200000X3.500000*%
G04 APERTURE END LIST*
D10*
%TO.C,D19*%
X184750000Y-110050000D03*
X181370000Y-110050000D03*
%TD*%
D11*
%TO.C,C13*%
X241800000Y-57800000D03*
X239800000Y-57800000D03*
%TD*%
D10*
%TO.C,D21*%
X198890000Y-144400000D03*
X195510000Y-144400000D03*
%TD*%
D12*
%TO.C,J3*%
X159260000Y-95060000D03*
X165400000Y-95060000D03*
X159260000Y-97600000D03*
X165400000Y-97600000D03*
X159260000Y-100140000D03*
X165400000Y-100140000D03*
%TD*%
D13*
%TO.C,D1*%
X157200000Y-80500000D03*
X157200000Y-85500000D03*
%TD*%
D14*
%TO.C,U6*%
X210860000Y-78687500D03*
X208560000Y-78687500D03*
D15*
X208560000Y-84987500D03*
D14*
X206260000Y-78687500D03*
%TD*%
D16*
%TO.C,C4*%
X220200000Y-83800000D03*
X220200000Y-85800000D03*
%TD*%
D11*
%TO.C,C7*%
X181800000Y-82060000D03*
X183800000Y-82060000D03*
%TD*%
D12*
%TO.C,J5*%
X179860000Y-95060000D03*
X186000000Y-95060000D03*
X179860000Y-97600000D03*
X186000000Y-97600000D03*
X179860000Y-100140000D03*
X186000000Y-100140000D03*
%TD*%
D17*
%TO.C,SW6*%
X210240000Y-91200000D03*
X210240000Y-100000000D03*
X212780000Y-91200000D03*
X212780000Y-100000000D03*
X215320000Y-91200000D03*
X215320000Y-100000000D03*
X217860000Y-91200000D03*
X217860000Y-100000000D03*
X220400000Y-91200000D03*
X220400000Y-100000000D03*
%TD*%
D16*
%TO.C,C10*%
X239400000Y-95400000D03*
X239400000Y-93400000D03*
%TD*%
D18*
%TO.C,U4*%
X224380000Y-64600000D03*
X225650000Y-64600000D03*
X226920000Y-64600000D03*
X228190000Y-64600000D03*
X229460000Y-64600000D03*
X230730000Y-64600000D03*
X232000000Y-64600000D03*
X233270000Y-64600000D03*
X233270000Y-59650000D03*
X232000000Y-59650000D03*
X230730000Y-59650000D03*
X229460000Y-59650000D03*
X228190000Y-59650000D03*
X226920000Y-59650000D03*
X225650000Y-59650000D03*
X224380000Y-59650000D03*
%TD*%
D16*
%TO.C,C5*%
X175340000Y-81935000D03*
X175340000Y-83935000D03*
%TD*%
D19*
%TO.C,D6*%
X204800000Y-119200000D03*
X201600000Y-119200000D03*
X201600000Y-124100000D03*
X204800000Y-124100000D03*
%TD*%
D20*
%TO.C,R3*%
X221200000Y-79800000D03*
X221200000Y-81800000D03*
%TD*%
D21*
%TO.C,BUZZER1*%
X233200000Y-136800000D03*
X233200000Y-147600000D03*
%TD*%
D22*
%TO.C,L1*%
X208000000Y-65600000D03*
X208000000Y-75200000D03*
%TD*%
D20*
%TO.C,R5*%
X180600000Y-73400000D03*
X180600000Y-75400000D03*
%TD*%
D12*
%TO.C,J6*%
X190130000Y-95061609D03*
X196270000Y-95061609D03*
X190130000Y-97601609D03*
X196270000Y-97601609D03*
X190130000Y-100141609D03*
X196270000Y-100141609D03*
%TD*%
D23*
%TO.C,D3*%
X217750000Y-80652500D03*
X217750000Y-82852500D03*
%TD*%
D24*
%TO.C,C19*%
X202300000Y-86600000D03*
X195300000Y-86600000D03*
%TD*%
D19*
%TO.C,D7*%
X204800000Y-127350000D03*
X201600000Y-127350000D03*
X201600000Y-132250000D03*
X204800000Y-132250000D03*
%TD*%
D25*
%TO.C,L2*%
X189460000Y-80000000D03*
X191400000Y-80000000D03*
%TD*%
D26*
%TO.C,Q7*%
X224000000Y-103500000D03*
X224000000Y-105400000D03*
X226000000Y-104450000D03*
%TD*%
D19*
%TO.C,D12*%
X199200000Y-135400000D03*
X196000000Y-135400000D03*
X196000000Y-140300000D03*
X199200000Y-140300000D03*
%TD*%
D12*
%TO.C,J7*%
X200330000Y-95061609D03*
X206470000Y-95061609D03*
X200330000Y-97601609D03*
X206470000Y-97601609D03*
X200330000Y-100141609D03*
X206470000Y-100141609D03*
%TD*%
D20*
%TO.C,R7*%
X184000000Y-73400000D03*
X184000000Y-75400000D03*
%TD*%
%TO.C,R11*%
X236000000Y-93400000D03*
X236000000Y-95400000D03*
%TD*%
D27*
%TO.C,X1*%
X175090000Y-88400000D03*
X175090000Y-86200000D03*
X173390000Y-86200000D03*
X173390000Y-88400000D03*
%TD*%
D19*
%TO.C,D8*%
X199200000Y-103150000D03*
X196000000Y-103150000D03*
X196000000Y-108050000D03*
X199200000Y-108050000D03*
%TD*%
D20*
%TO.C,R6*%
X187400000Y-73400000D03*
X187400000Y-75400000D03*
%TD*%
D28*
%TO.C,SW2*%
X248980000Y-93000000D03*
X244620000Y-93000000D03*
%TD*%
D11*
%TO.C,C2*%
X170000000Y-87600000D03*
X168000000Y-87600000D03*
%TD*%
D10*
%TO.C,D16*%
X226140000Y-144250000D03*
X222760000Y-144250000D03*
%TD*%
D11*
%TO.C,C16*%
X213400000Y-78800000D03*
X215400000Y-78800000D03*
%TD*%
D29*
%TO.C,U5*%
X199760000Y-62590000D03*
X198060000Y-62590000D03*
X196360000Y-62590000D03*
X194660000Y-62590000D03*
X192960000Y-62590000D03*
D30*
X196040000Y-72610000D03*
%TD*%
D17*
%TO.C,SW5*%
X222900000Y-91200000D03*
X222900000Y-100000000D03*
X225440000Y-91200000D03*
X225440000Y-100000000D03*
X227980000Y-91200000D03*
X227980000Y-100000000D03*
X230520000Y-91200000D03*
X230520000Y-100000000D03*
X233060000Y-91200000D03*
X233060000Y-100000000D03*
%TD*%
D13*
%TO.C,D22*%
X214600000Y-69900000D03*
X214600000Y-74900000D03*
%TD*%
D19*
%TO.C,D10*%
X199200000Y-119200000D03*
X196000000Y-119200000D03*
X196000000Y-124100000D03*
X199200000Y-124100000D03*
%TD*%
%TO.C,D4*%
X204800000Y-111150000D03*
X201600000Y-111150000D03*
X201600000Y-116050000D03*
X204800000Y-116050000D03*
%TD*%
D10*
%TO.C,D17*%
X218140000Y-144250000D03*
X214760000Y-144250000D03*
%TD*%
D16*
%TO.C,C20*%
X239400000Y-97400000D03*
X239400000Y-99400000D03*
%TD*%
D10*
%TO.C,D20*%
X198890000Y-142400000D03*
X195510000Y-142400000D03*
%TD*%
D16*
%TO.C,C6*%
X172000000Y-81860000D03*
X172000000Y-83860000D03*
%TD*%
D20*
%TO.C,R4*%
X177200000Y-73400000D03*
X177200000Y-75400000D03*
%TD*%
D25*
%TO.C,R8*%
X203200000Y-52800000D03*
X205200000Y-52800000D03*
%TD*%
D31*
%TO.C,D2*%
X197860000Y-79037500D03*
X202860000Y-79037500D03*
%TD*%
D12*
%TO.C,J4*%
X169660000Y-95060000D03*
X175800000Y-95060000D03*
X169660000Y-97600000D03*
X175800000Y-97600000D03*
X169660000Y-100140000D03*
X175800000Y-100140000D03*
%TD*%
D28*
%TO.C,SW1*%
X248980000Y-89800000D03*
X244620000Y-89800000D03*
%TD*%
D32*
%TO.C,U2*%
X177780000Y-84260000D03*
X177780000Y-84760000D03*
X177780000Y-85260000D03*
X177780000Y-85760000D03*
X177780000Y-86260000D03*
X177780000Y-86760000D03*
D33*
X178440000Y-87420000D03*
X178940000Y-87420000D03*
X179440000Y-87420000D03*
X179940000Y-87420000D03*
X180440000Y-87420000D03*
X180940000Y-87420000D03*
D32*
X181600000Y-86760000D03*
X181600000Y-86260000D03*
X181600000Y-85760000D03*
X181600000Y-85260000D03*
X181600000Y-84760000D03*
X181600000Y-84260000D03*
D33*
X180940000Y-83600000D03*
X180440000Y-83600000D03*
X179940000Y-83600000D03*
X179440000Y-83600000D03*
X178940000Y-83600000D03*
X178440000Y-83600000D03*
D34*
X179690000Y-85510000D03*
%TD*%
D35*
%TO.C,P1*%
X199710000Y-57960000D03*
X198910000Y-57960000D03*
X197610000Y-57960000D03*
X196610000Y-57960000D03*
X196110000Y-57960000D03*
X195110000Y-57960000D03*
X193810000Y-57960000D03*
X193010000Y-57960000D03*
X193310000Y-57960000D03*
X194110000Y-57960000D03*
X194610000Y-57960000D03*
X195610000Y-57960000D03*
X197110000Y-57960000D03*
X198110000Y-57960000D03*
X198610000Y-57960000D03*
X199410000Y-57960000D03*
%TD*%
D26*
%TO.C,Q3*%
X214800000Y-103450000D03*
X214800000Y-105350000D03*
X216800000Y-104400000D03*
%TD*%
D36*
%TO.C,SW4*%
X239100000Y-55387500D03*
X236600000Y-55387500D03*
X234100000Y-55387500D03*
%TD*%
D16*
%TO.C,C1*%
X173800000Y-73600000D03*
X173800000Y-75600000D03*
%TD*%
D11*
%TO.C,C12*%
X235600000Y-57800000D03*
X237600000Y-57800000D03*
%TD*%
%TO.C,C14*%
X205200000Y-61800000D03*
X203200000Y-61800000D03*
%TD*%
D25*
%TO.C,R9*%
X203200000Y-56200000D03*
X205200000Y-56200000D03*
%TD*%
D10*
%TO.C,D15*%
X218670000Y-118050000D03*
X215290000Y-118050000D03*
%TD*%
D25*
%TO.C,R1*%
X174600000Y-78400000D03*
X172600000Y-78400000D03*
%TD*%
D26*
%TO.C,Q1*%
X210200000Y-103450000D03*
X210200000Y-105350000D03*
X212200000Y-104400000D03*
%TD*%
D11*
%TO.C,C3*%
X171400000Y-92000000D03*
X173400000Y-92000000D03*
%TD*%
D26*
%TO.C,Q8*%
X226000000Y-106650000D03*
X226000000Y-108550000D03*
X228000000Y-107600000D03*
%TD*%
D25*
%TO.C,R2*%
X185400000Y-87400000D03*
X187400000Y-87400000D03*
%TD*%
D11*
%TO.C,C17*%
X203200000Y-59600000D03*
X205200000Y-59600000D03*
%TD*%
D20*
%TO.C,R15*%
X236000000Y-97400000D03*
X236000000Y-99400000D03*
%TD*%
D16*
%TO.C,C9*%
X239400000Y-89400000D03*
X239400000Y-91400000D03*
%TD*%
D26*
%TO.C,Q5*%
X219400000Y-103450000D03*
X219400000Y-105350000D03*
X221400000Y-104400000D03*
%TD*%
D11*
%TO.C,C18*%
X213400000Y-85200000D03*
X215400000Y-85200000D03*
%TD*%
%TO.C,C8*%
X185000000Y-80060000D03*
X187000000Y-80060000D03*
%TD*%
D19*
%TO.C,D5*%
X204760000Y-103150000D03*
X201560000Y-103150000D03*
X201560000Y-108050000D03*
X204760000Y-108050000D03*
%TD*%
D26*
%TO.C,Q2*%
X212200000Y-106650000D03*
X212200000Y-108550000D03*
X214200000Y-107600000D03*
%TD*%
%TO.C,Q4*%
X216800000Y-106650000D03*
X216800000Y-108550000D03*
X218800000Y-107600000D03*
%TD*%
D25*
%TO.C,R13*%
X241000000Y-63800000D03*
X239000000Y-63800000D03*
%TD*%
%TO.C,R12*%
X239000000Y-61610000D03*
X241000000Y-61610000D03*
%TD*%
D19*
%TO.C,D13*%
X204800000Y-135400000D03*
X201600000Y-135400000D03*
X201600000Y-140300000D03*
X204800000Y-140300000D03*
%TD*%
D20*
%TO.C,R10*%
X236000000Y-91400000D03*
X236000000Y-89400000D03*
%TD*%
D19*
%TO.C,D11*%
X199200000Y-127350000D03*
X196000000Y-127350000D03*
X196000000Y-132250000D03*
X199200000Y-132250000D03*
%TD*%
D28*
%TO.C,SW3*%
X248980000Y-96200000D03*
X244620000Y-96200000D03*
%TD*%
D37*
%TO.C,U1*%
X242280000Y-67500000D03*
X241010000Y-67500000D03*
X239740000Y-67500000D03*
X238470000Y-67500000D03*
X237200000Y-67500000D03*
X235930000Y-67500000D03*
X234660000Y-67500000D03*
X233390000Y-67500000D03*
X232120000Y-67500000D03*
X230850000Y-67500000D03*
X229580000Y-67500000D03*
X228310000Y-67500000D03*
X227040000Y-67500000D03*
X225770000Y-67500000D03*
D38*
X224280000Y-70790000D03*
X224280000Y-72060000D03*
X224280000Y-73330000D03*
X224280000Y-74600000D03*
X224280000Y-75870000D03*
X224280000Y-77140000D03*
X224280000Y-78410000D03*
X224280000Y-79680000D03*
X224280000Y-80950000D03*
X224280000Y-82220000D03*
D37*
X225770000Y-85500000D03*
X227040000Y-85500000D03*
X228310000Y-85500000D03*
X229580000Y-85500000D03*
X230850000Y-85500000D03*
X232120000Y-85500000D03*
X233390000Y-85500000D03*
X234660000Y-85500000D03*
X235930000Y-85500000D03*
X237200000Y-85500000D03*
X238470000Y-85500000D03*
X239740000Y-85500000D03*
X241010000Y-85500000D03*
X242280000Y-85500000D03*
D39*
X236000000Y-76400000D03*
X236000000Y-75000000D03*
X236000000Y-73600000D03*
X234600000Y-76400000D03*
X234600000Y-75000000D03*
X234600000Y-73600000D03*
X233200000Y-76400000D03*
X233200000Y-75000000D03*
X233200000Y-73600000D03*
%TD*%
D26*
%TO.C,Q6*%
X221400000Y-106450000D03*
X221400000Y-108350000D03*
X223400000Y-107400000D03*
%TD*%
D20*
%TO.C,R14*%
X219040000Y-74892500D03*
X219040000Y-76892500D03*
%TD*%
D40*
%TO.C,C15*%
X219400000Y-71800000D03*
X219400000Y-66460000D03*
%TD*%
D19*
%TO.C,D9*%
X199200000Y-111150000D03*
X196000000Y-111150000D03*
X196000000Y-116050000D03*
X199200000Y-116050000D03*
%TD*%
D10*
%TO.C,D18*%
X177040000Y-110050000D03*
X173660000Y-110050000D03*
%TD*%
%TO.C,D14*%
X226780000Y-118050000D03*
X223400000Y-118050000D03*
%TD*%
D16*
%TO.C,C11*%
X243000000Y-61600000D03*
X243000000Y-63600000D03*
%TD*%
M02*
